<svg id="Layer_1" xmlns="http://www.w3.org/2000/svg" viewBox="0 0 512 512"><style>.st0{fill:#ef5656}.st1{fill:#fff}</style><title/><circle class="st0" cx="256" cy="256" r="252.2"/><path class="st1" d="M359.3 319.8L295.5 256l63.8-63.8c.7-.7 1.2-1.5 1.5-2.3.9-2.3.4-5-1.5-7l-30.2-30.2c-1.9-1.9-4.6-2.4-6.9-1.5-.8.3-1.7.8-2.3 1.5L256 216.5l-63.8-63.8c-.7-.7-1.5-1.2-2.3-1.5-2.3-.9-5-.4-7 1.5l-30.2 30.2c-1.9 1.9-2.4 4.6-1.5 6.9.3.8.8 1.7 1.5 2.3l63.8 63.8-63.8 63.8c-.7.7-1.2 1.5-1.5 2.3-.9 2.3-.4 5 1.5 7l30.2 30.2c1.9 1.9 4.6 2.4 7 1.5.8-.3 1.7-.8 2.3-1.5l63.8-63.8 63.8 63.8c.7.7 1.5 1.2 2.3 1.5 2.3.9 5 .4 6.9-1.5l30.2-30.2c1.9-1.9 2.4-4.6 1.5-7-.2-.7-.6-1.4-1.4-2.2z"/></svg>